<svg xmlns="http://www.w3.org/2000/svg" width="76" height="80" viewBox="0 0 76 80" fill="none">
<path d="M28.5622 60.5517C28.5622 71.0345 38.0689 80 38.0689 80C38.0689 80 46.6112 72.1379 47.5756 62.2069C48.6288 51.3623 47.5756 46.069 54.4646 35.1724C59.7349 26.8362 72.5136 17.5172 72.5136 17.5172V0.137931C72.5136 0.137931 51.1038 11.7436 42.2023 23.8621C33.1551 36.1788 28.5622 45.2633 28.5622 60.5517Z" fill="white"/>
<path d="M24.5666 67.1724C25.5053 70.4616 28.4244 75.0345 28.4244 75.0345C28.4244 75.0345 12.4809 67.8621 5.27755 55.1724C-3.10025 40.4138 1.00641 20.9655 1.00641 20.9655C1.00641 20.9655 13.131 29.3793 17.8154 39.5862C22.441 49.665 22.6377 60.4138 24.5666 67.1724Z" fill="white"/>
<path d="M51.4334 67.1724C50.4947 70.4616 47.5756 75.0345 47.5756 75.0345C47.5756 75.0345 63.5191 67.8621 70.7225 55.1724C79.1002 40.4138 74.9936 20.9655 74.9936 20.9655C74.9936 20.9655 62.869 29.3793 58.1846 39.5862C53.559 49.665 53.3623 60.4138 51.4334 67.1724Z" fill="white"/>
<path d="M15.3354 27.1724C20.9247 33.1109 26.4955 44.8276 26.4955 44.8276C26.4955 44.8276 28.4421 38.8848 30.2155 35.3103C32.0423 31.6284 35.7267 26.3448 35.7267 26.3448C35.7267 26.3448 27.5624 16.4729 21.2599 11.3103C14.8946 6.09635 3.48648 0 3.48648 0V17.6552C3.48648 17.6552 11.267 22.8498 15.3354 27.1724Z" fill="white"/>
</svg>
